<svg xmlns="http://www.w3.org/2000/svg" version="1.1" xmlns:xlink="http://www.w3.org/1999/xlink" xmlns:svgjs="http://svgjs.dev/svgjs" width="2000" height="1500" viewBox="0 0 2000 1500"><rect width="2000" height="1500" fill="#ffffff"></rect><g transform="matrix(0.75,0,0,0.75,249.2500000000001,-0.7492801570392658)"><svg viewBox="0 0 280 280" data-background-color="#ffffff" preserveAspectRatio="xMidYMid meet" height="2000" width="2000" xmlns="http://www.w3.org/2000/svg" xmlns:xlink="http://www.w3.org/1999/xlink"><g id="tight-bounds" transform="matrix(1,0,0,1,0.13999999999998636,0.14013437451399113)"><svg viewBox="0 0 279.72 279.72" height="279.72" width="279.72"><g><svg viewBox="0 0 279.72 279.72" height="279.72" width="279.72"><g><svg viewBox="0 0 279.72 279.72" height="279.72" width="279.72"><g id="textblocktransform"><svg viewBox="0 0 279.72 279.72" height="279.72" width="279.72" id="textblock"><g><svg viewBox="0 0 279.72 279.72" height="279.72" width="279.72"><g transform="matrix(1,0,0,1,97.95307282649904,73.92936372216631)"><svg viewBox="0 0 83.81385434700194 131.8612725556674" height="131.8612725556674" width="83.81385434700194"><g id="icon-0"><svg xmlns="http://www.w3.org/2000/svg" xmlns:cc="http://creativecommons.org/ns#" xmlns:dc="http://purl.org/dc/elements/1.1/" xmlns:rdf="http://www.w3.org/1999/02/22-rdf-syntax-ns#" version="1.1" viewBox="21.54608584036337 2.384837874448031 60.03391415963662 94.44916212555198" x="0" y="0" height="131.8612725556674" width="83.81385434700194" class="icon-jxe-0" data-fill-palette-color="accent" id="jxe-0"><path d="M47.033 2.385A1.25 1.25 0 0 0 45.803 3.652V13.29A1.25 1.25 0 1 0 48.303 13.29V3.652A1.25 1.25 0 0 0 47.033 2.385M31.211 7.377A1.25 1.25 0 0 0 30.369 9.533L37.274 16.258A1.25 1.25 0 1 0 39.018 14.467L32.113 7.742A1.25 1.25 0 0 0 31.211 7.377M62.723 7.377A1.25 1.25 0 0 0 61.86 7.742L54.955 14.467A1.25 1.25 0 1 0 56.7 16.257L63.604 9.534A1.25 1.25 0 0 0 62.723 7.377M47.112 17.439C43.841 17.439 41.09 19.982 41.1 23.187L41.196 56.527 30.694 46.547A5.38 5.38 0 0 0 26.989 45.062C25.664 45.063 24.355 45.567 23.383 46.59L22.821 47.181C21.846 48.207 21.457 49.56 21.563 50.831 21.67 52.104 22.215 53.315 23.033 54.352L40.564 76.574C40.573 76.586 40.63 76.664 40.709 76.781 40.794 76.907 40.887 77.1 40.854 77.01 40.839 76.97 40.907 77.257 40.932 77.474 40.956 77.68 40.964 77.828 40.965 77.846V81.642H38.045C37.053 81.642 36.276 82.284 35.832 83.002 35.388 83.719 35.17 84.582 35.17 85.517V92.96C35.17 93.894 35.388 94.757 35.832 95.474S37.053 96.834 38.045 96.834H78.705C79.697 96.834 80.474 96.192 80.918 95.474 81.362 94.757 81.58 93.894 81.58 92.96V85.517C81.58 84.583 81.362 83.72 80.918 83.002S79.698 81.642 78.705 81.642H75.971C75.927 80.618 75.83 77.985 76.067 76.683 76.24 75.723 76.375 75.59 76.748 74.851 77.121 74.114 77.634 72.976 78.275 70.603 79.02 67.847 79.112 62.303 79.123 57.164S78.988 47.474 78.988 47.474C79.18 44.276 76.452 41.74 73.387 41.74A5.47 5.47 0 0 0 69.715 43.166C68.819 41.238 66.949 39.877 64.742 39.877 63.35 39.877 62.092 40.42 61.127 41.303 60.227 39.385 58.363 38.033 56.164 38.033A5.3 5.3 0 0 0 53.124 39V23.184C53.123 19.984 50.382 17.44 47.11 17.44zM47.112 19.939C49.117 19.939 50.624 21.404 50.624 23.183V50.386A1.25 1.25 0 1 0 53.124 50.386V45.431L53.126 45.343V43.878C53.126 41.96 54.506 40.533 56.165 40.533 57.823 40.533 59.205 41.959 59.205 43.878V45.503L59.209 45.583C59.207 45.63 59.202 45.674 59.202 45.72V52.197A1.25 1.25 0 1 0 61.702 52.197V45.72C61.702 43.801 63.084 42.376 64.742 42.376S67.785 43.801 67.785 45.72V47.421L67.786 47.476 67.784 47.511V53.888A1.25 1.25 0 1 0 70.284 53.888V47.511C70.284 45.651 71.673 44.24 73.387 44.24 75.097 44.24 76.646 45.68 76.495 47.402A1 1 0 0 0 76.49 47.552S76.635 52.07 76.624 57.158C76.612 62.246 76.368 68.084 75.864 69.95 75.256 72.2 74.85 73.067 74.518 73.722S73.828 75.022 73.608 76.238C73.303 77.918 73.375 80.33 73.444 81.642H43.465V77.794L43.463 77.724S43.45 77.481 43.416 77.185 43.356 76.566 43.197 76.14V76.138C43.058 75.763 42.908 75.571 42.78 75.38 42.65 75.19 42.537 75.04 42.537 75.04L42.526 75.025 24.996 52.802C24.437 52.09 24.11 51.299 24.054 50.624S24.153 49.41 24.633 48.904V48.9L25.196 48.31C26.164 47.29 27.818 47.263 28.97 48.359L40.192 59.02C40.25 59.119 40.305 59.22 40.397 59.335 40.652 59.651 41.19 60.135 41.99 60.097A1.58 1.58 0 0 0 42.983 59.644C43.187 59.436 43.283 59.244 43.358 59.075A3.4 3.4 0 0 0 43.606 58.18C43.694 57.637 43.698 57.15 43.698 57.15V57.122L43.6 23.182V23.178C43.595 21.405 45.107 19.94 47.112 19.94M27.139 23.912A1.25 1.25 0 1 0 27.139 26.412H36.776A1.25 1.25 0 1 0 36.776 23.912zM57.278 23.912A1.25 1.25 0 1 0 57.278 26.412H66.915A1.25 1.25 0 1 0 66.915 23.912zM38.046 84.142H78.706C78.614 84.142 78.651 84.086 78.794 84.317 78.937 84.55 79.08 84.997 79.08 85.517V92.958C79.081 93.478 78.937 93.928 78.794 94.16A0.8 0.8 0 0 1 78.66 94.333H38.091A0.8 0.8 0 0 1 37.958 94.16C37.815 93.928 37.671 93.478 37.671 92.96V85.516C37.671 84.997 37.815 84.549 37.958 84.317 38.102 84.086 38.138 84.142 38.046 84.142" color="#bb3e03" color-rendering="auto" dominant-baseline="auto" fill-rule="evenodd" image-rendering="auto" shape-rendering="auto" solid-color="#bb3e03" font-feature-settings="normal" font-variant-alternates="normal" font-variant-caps="normal" font-variant-ligatures="normal" font-variant-numeric="normal" font-variant-position="normal" isolation="auto" mix-blend-mode="normal" paint-order="fill markers stroke" shape-padding="0" text-decoration-color="#bb3e03" text-decoration-line="none" text-decoration-style="solid" text-indent="0" text-orientation="mixed" text-transform="none" white-space="normal" fill="#000000" data-fill-palette-color="accent"></path></svg></g></svg></g><g id="text-0"><path d="M25.472 104.456v0c0.376-1.186 0.378-2.154 0.006-2.902-0.366-0.747-0.91-1.235-1.634-1.465v0c-0.424-0.134-0.832-0.192-1.225-0.173-0.393 0.019-0.8 0.127-1.221 0.324-0.427 0.194-0.877 0.482-1.349 0.863-0.472 0.381-1.013 0.877-1.622 1.487v0c-0.741 0.755-1.427 1.391-2.057 1.908-0.624 0.52-1.233 0.915-1.828 1.185-0.595 0.27-1.189 0.426-1.783 0.468-0.594 0.041-1.22-0.042-1.878-0.251v0c-0.795-0.252-1.437-0.613-1.926-1.084-0.496-0.473-0.854-1.027-1.076-1.663-0.221-0.637-0.314-1.34-0.278-2.111 0.034-0.764 0.186-1.572 0.457-2.426v0c0.545-1.72 1.496-3.262 2.853-4.625v0l4.222 1.338-0.492 1.554-3.797-0.407c-0.77 0.824-1.326 1.774-1.667 2.85v0c-0.572 1.805-0.118 2.942 1.362 3.411v0c0.789 0.25 1.609 0.184 2.461-0.199 0.846-0.385 1.808-1.134 2.885-2.249v0c0.748-0.753 1.442-1.404 2.082-1.954 0.634-0.552 1.253-0.98 1.859-1.283 0.605-0.303 1.212-0.487 1.821-0.552 0.613-0.057 1.262 0.023 1.946 0.24v0c0.769 0.244 1.43 0.636 1.983 1.177 0.561 0.536 0.983 1.175 1.264 1.917 0.286 0.75 0.433 1.586 0.443 2.507 0.016 0.923-0.137 1.893-0.46 2.909v0c-0.619 1.955-1.622 3.66-3.007 5.114v0l-4.223-1.338 0.492-1.555 3.494 0.311c0.863-0.96 1.494-2.069 1.893-3.326z" fill="#000000" data-fill-palette-color="primary"></path><path d="M23.227 60.55v0l4.082 2.805 2.764-4.023c0.252 0.115 0.438 0.214 0.556 0.295v0c0.169 0.116 0.353 0.271 0.551 0.465v0l-2.163 4.435 7.851 5.395c1.409 0.968 2.49 1.524 3.245 1.669 0.758 0.14 1.327-0.067 1.706-0.619v0c0.341-0.496 0.674-1.403 1-2.722v0c0.297-0.07 0.709 0.018 1.236 0.264v0c-0.047 0.805-0.092 1.413-0.133 1.825-0.038 0.405-0.148 0.873-0.33 1.403-0.186 0.536-0.449 1.052-0.789 1.547v0c-0.654 0.952-1.553 1.475-2.696 1.57-1.148 0.09-2.472-0.38-3.971-1.409v0l-9.339-6.416-1.638 1.823c-0.213-0.088-0.387-0.179-0.522-0.272v0c-0.152-0.105-0.347-0.267-0.585-0.489v0c0.272-0.601 0.423-1.177 0.453-1.729 0.025-0.555-0.086-1.112-0.332-1.671-0.242-0.565-0.481-1.032-0.717-1.401-0.236-0.369-0.593-0.876-1.071-1.519v0c0.054-0.212 0.166-0.441 0.337-0.69v0c0.155-0.225 0.323-0.404 0.505-0.536z" fill="#000000" data-fill-palette-color="primary"></path><path d="M59.743 47.209v0c0.744 0.937 1.443 1.464 2.096 1.583 0.653 0.119 1.351-0.118 2.095-0.709v0c0.541-0.43 1.009-1.077 1.405-1.941 0.395-0.855 0.62-1.824 0.676-2.908v0l-3.362-4.23c-1.773 1.592-2.939 3.06-3.496 4.401-0.557 1.342-0.362 2.61 0.586 3.804zM61.881 38.032v0l-1.104-1.389c-1.221-1.536-2.284-2.512-3.189-2.926-0.906-0.415-1.766-0.299-2.58 0.346v0c-0.835 0.663-1.291 1.463-1.369 2.398-0.083 0.939 0.292 2.121 1.127 3.545v0c-0.476 0.588-0.848 0.988-1.116 1.2v0c-0.706 0.561-1.326 0.639-1.858 0.233v0c-0.974-1.226-1.213-2.625-0.716-4.199 0.487-1.574 1.525-2.993 3.114-4.255v0c1.756-1.395 3.285-2.025 4.588-1.891 1.299 0.129 2.682 1.117 4.149 2.964v0l6.079 7.651c0.357 0.45 0.692 0.816 1.006 1.1v0l2.36-1.43c0.282 0.212 0.554 0.555 0.817 1.027v0c-1.242 1.074-2.51 2.287-3.803 3.637v0c-0.259-0.03-0.49-0.139-0.692-0.327v0l-1.623-1.762c-0.139 2.913-1.129 5.101-2.97 6.564v0c-1.14 0.906-2.291 1.287-3.452 1.145-1.161-0.143-2.18-0.765-3.056-1.868v0c-1.323-1.665-1.565-3.519-0.727-5.564 0.833-2.05 2.505-4.116 5.015-6.199z" fill="#000000" data-fill-palette-color="primary"></path><path d="M91.562 12.681v0l1.193 3.364c0.163-1.194 0.571-2.389 1.223-3.584 0.643-1.2 1.397-1.963 2.26-2.289v0c0.672-0.253 1.295-0.401 1.871-0.443v0c0.279 0.216 0.504 0.551 0.676 1.006v0c0.268 0.71 0.387 1.48 0.356 2.309v0c-0.862 0.077-1.649 0.249-2.359 0.517v0c-1.778 0.671-2.914 2.086-3.407 4.245v0l2.085 5.701 1.846 4.893 3.779-0.877c0.213 0.314 0.378 0.749 0.492 1.304v0c-1.389 0.444-2.96 0.996-4.712 1.658v0c-1.318 0.497-2.876 1.111-4.676 1.84v0c-0.282-0.361-0.442-0.783-0.477-1.266v0l2.427-1.322c-0.359-1.223-0.832-2.612-1.418-4.166v0l-3.348-8.874c-0.164-0.435-0.347-0.823-0.549-1.163v0l-2.684 0.64c-0.213-0.292-0.368-0.705-0.467-1.238v0c1.449-0.671 3.222-1.599 5.317-2.784v0c0.274 0.145 0.465 0.322 0.572 0.529z" fill="#000000" data-fill-palette-color="primary"></path><path d="M130.142 0.065v0l0.374 4.939 4.867-0.369c0.068 0.269 0.108 0.475 0.119 0.618v0c0.016 0.204 0.01 0.445-0.017 0.721v0l-4.812 1.095 0.721 9.499c0.129 1.704 0.374 2.896 0.734 3.574 0.367 0.678 0.884 0.992 1.552 0.942v0c0.6-0.046 1.516-0.355 2.747-0.928v0c0.24 0.187 0.43 0.564 0.569 1.129v0c-0.657 0.468-1.159 0.815-1.505 1.039-0.339 0.225-0.773 0.432-1.3 0.623-0.534 0.191-1.101 0.31-1.7 0.356v0c-1.152 0.087-2.123-0.285-2.913-1.116-0.79-0.838-1.254-2.164-1.392-3.977v0l-0.857-11.298-2.447-0.133c-0.065-0.221-0.103-0.414-0.116-0.578v0c-0.014-0.184-0.009-0.438 0.014-0.762v0c0.639-0.165 1.182-0.408 1.631-0.73 0.448-0.329 0.813-0.764 1.094-1.307 0.288-0.543 0.502-1.022 0.642-1.437 0.14-0.415 0.311-1.011 0.512-1.787v0c0.199-0.09 0.448-0.147 0.748-0.17v0c0.273-0.021 0.517-0.002 0.735 0.057z" fill="#000000" data-fill-palette-color="primary"></path><path d="M202.411 33.263l2.934-5.617c0.823-1.575 1.189-2.792 1.097-3.65-0.086-0.855-0.619-1.538-1.601-2.051v0c-1.515-0.791-3.632-0.451-6.352 1.02v0l-5.36 10.261 2.243 1.751c-0.086 0.371-0.301 0.784-0.645 1.236v0c-1.256-0.741-2.556-1.463-3.902-2.166v0c-0.945-0.494-2.289-1.169-4.032-2.025v0c0.081-0.451 0.29-0.851 0.627-1.2v0l2.602 0.932c0.674-1.083 1.395-2.36 2.164-3.833v0l4.392-8.407c0.215-0.412 0.383-0.807 0.503-1.183v0l-2.265-1.577c0.077-0.353 0.281-0.744 0.612-1.172v0c1.466 0.635 3.338 1.339 5.618 2.113v0c0.074 0.301 0.07 0.561-0.014 0.779v0c-0.382 0.479-0.909 1.364-1.584 2.655v0c2.786-1.391 5.191-1.557 7.214-0.5v0c3.175 1.659 3.976 3.994 2.403 7.005v0l-5.712 10.934 2.244 1.75c-0.086 0.371-0.301 0.784-0.646 1.236v0c-1.256-0.741-2.559-1.464-3.91-2.17v0c-0.939-0.491-2.28-1.164-4.023-2.021v0c0.081-0.451 0.29-0.851 0.626-1.199v0l2.603 0.931c0.674-1.083 1.395-2.36 2.164-3.832z" fill="#000000" data-fill-palette-color="primary"></path><path d="M228.863 48.83v0c1.009-0.943 2.096-1.682 3.26-2.219 1.164-0.526 2.335-0.821 3.512-0.882 1.177-0.062 2.325 0.125 3.442 0.559 1.112 0.429 2.126 1.134 3.041 2.113v0c0.896 0.959 1.525 2.013 1.888 3.162 0.363 1.149 0.478 2.314 0.346 3.494-0.132 1.18-0.497 2.336-1.097 3.467-0.604 1.135-1.411 2.175-2.42 3.117v0c-1.049 0.98-2.16 1.724-3.333 2.23-1.163 0.507-2.336 0.779-3.517 0.817-1.177 0.042-2.316-0.161-3.418-0.609-1.107-0.453-2.101-1.152-2.984-2.096v0c-0.933-0.999-1.589-2.056-1.967-3.172-0.378-1.116-0.502-2.249-0.371-3.4 0.131-1.142 0.498-2.276 1.102-3.402 0.614-1.125 1.452-2.185 2.516-3.179zM236.967 48.175v0c-1.706 0.237-3.595 1.324-5.667 3.262v0c-1.029 0.961-1.842 1.904-2.439 2.826-0.592 0.918-0.989 1.785-1.191 2.601-0.197 0.82-0.211 1.577-0.041 2.269 0.17 0.693 0.509 1.311 1.018 1.856v0c0.485 0.519 1.077 0.897 1.776 1.134 0.693 0.231 1.456 0.277 2.287 0.135 0.832-0.141 1.728-0.473 2.69-0.997 0.971-0.523 1.97-1.266 2.999-2.227v0c1.029-0.961 1.84-1.911 2.432-2.849 0.597-0.933 0.99-1.814 1.178-2.644 0.192-0.825 0.201-1.592 0.027-2.299-0.169-0.712-0.497-1.328-0.982-1.847v0c-0.98-1.049-2.342-1.455-4.087-1.22z" fill="#000000" data-fill-palette-color="primary"></path><path d="M270.634 103.847l-19.662 0.106-0.264-0.679 10.195-8.869-13.571 0.181-0.264-0.678 14.668-12.841-0.399-2.188c0.312-0.217 0.742-0.384 1.29-0.502v0c0.378 1.217 0.835 2.517 1.373 3.9v0c0.475 1.223 1.013 2.511 1.611 3.863v0c-0.381 0.302-0.802 0.466-1.261 0.49v0l-1.358-2.333-6.318 5.426c-1.859 1.595-3.227 2.699-4.104 3.311v0l0.026 0.067c2.048-0.202 3.751-0.284 5.108-0.247v0l5.067-0.066 2.632-2.288-0.4-2.188c0.309-0.223 0.739-0.39 1.291-0.501v0c0.378 1.217 0.834 2.514 1.369 3.89v0c0.478 1.23 1.016 2.52 1.614 3.872v0c-0.384 0.296-0.804 0.459-1.261 0.49v0l-1.358-2.332-6.355 5.33c-1.861 1.589-3.231 2.689-4.107 3.302v0l0.026 0.067c2.048-0.202 3.752-0.281 5.111-0.238v0l8.709-0.15-0.722-2.624c0.312-0.217 0.742-0.384 1.29-0.501v0c0.378 1.217 0.767 2.342 1.168 3.374v0c0.344 0.886 0.816 2.004 1.415 3.356v0c-0.384 0.296-0.804 0.459-1.262 0.49v0z" fill="#000000" data-fill-palette-color="primary"></path><path d="M2.09 142.771c0-4.803 3.893-8.696 8.696-8.696 4.803 0 8.696 3.893 8.696 8.696 0 4.803-3.893 8.696-8.696 8.696-4.803 0-8.696-3.893-8.696-8.696z" fill="#000000" data-fill-palette-color="primary"></path><path d="M260.238 142.771c0-4.803 3.893-8.696 8.696-8.696 4.803 0 8.696 3.893 8.696 8.696 0 4.803-3.893 8.696-8.696 8.696-4.803 0-8.696-3.893-8.696-8.696z" fill="#000000" data-fill-palette-color="primary"></path></g><g id="text-1"><path d="M18.833 187.654v0l-2.408-7.766c-4.258 1.155-5.973 3.068-5.145 5.739v0c0.354 1.143 1.218 2.152 2.592 3.029v0c-0.067 0.293-0.263 0.561-0.588 0.804v0c-1.627-0.748-2.712-1.997-3.255-3.746v0c-1.247-4.022 0.5-6.768 5.24-8.238v0c2.246-0.696 4.174-0.643 5.783 0.161 1.616 0.802 2.668 1.993 3.158 3.573v0c0.538 1.737 0.324 3.17-0.642 4.3-0.973 1.132-2.423 1.996-4.349 2.594v0c-0.188-0.121-0.316-0.27-0.386-0.45zM23.206 181.468v0c-0.265-0.855-0.935-1.446-2.009-1.771-1.083-0.33-2.337-0.346-3.762-0.047v0l0.954 3.075c0.379 1.221 0.724 2.069 1.036 2.545v0c1.352-0.419 2.382-0.964 3.09-1.634 0.702-0.668 0.932-1.391 0.691-2.168z" fill="#000000" data-fill-palette-color="secondary"></path><path d="M17.929 195.47v0c-0.816 0.368-1.328 0.779-1.536 1.233-0.202 0.451-0.156 1 0.136 1.648v0c0.214 0.474 0.596 0.931 1.147 1.372 0.551 0.441 1.212 0.784 1.983 1.029v0l3.683-1.661c-0.827-1.584-1.676-2.701-2.546-3.351-0.871-0.65-1.826-0.74-2.867-0.27zM24.193 198.707v0l1.205-0.543c1.34-0.604 2.242-1.199 2.706-1.783 0.473-0.581 0.549-1.226 0.229-1.937v0c-0.326-0.723-0.823-1.2-1.49-1.432-0.661-0.234-1.587-0.177-2.779 0.174v0c-0.34-0.454-0.563-0.8-0.67-1.036v0c-0.275-0.611-0.217-1.072 0.175-1.384v0c1.072-0.483 2.132-0.403 3.18 0.242 1.048 0.645 1.886 1.662 2.512 3.051v0c0.689 1.527 0.865 2.748 0.529 3.665-0.327 0.92-1.295 1.743-2.903 2.468v0l-6.664 3.006c-0.393 0.177-0.722 0.352-0.99 0.525v0l0.61 1.975c-0.209 0.169-0.508 0.304-0.897 0.405v0c-0.553-1.093-1.199-2.234-1.938-3.423v0c0.068-0.181 0.189-0.329 0.362-0.445v0l1.581-0.859c-2.089-0.625-3.496-1.741-4.222-3.349v0c-0.447-0.991-0.513-1.894-0.199-2.711 0.314-0.817 0.954-1.443 1.92-1.879v0c1.446-0.652 2.836-0.488 4.17 0.493 1.335 0.98 2.526 2.573 3.573 4.777z" fill="#000000" data-fill-palette-color="secondary"></path><path d="M23.674 213.043v0c0.475 0.807 1.011 1.293 1.607 1.458 0.6 0.17 1.145 0.111 1.634-0.177v0c0.283-0.166 0.519-0.365 0.708-0.595 0.184-0.227 0.328-0.507 0.435-0.839 0.102-0.338 0.167-0.733 0.194-1.186 0.018-0.455 0.009-1.001-0.025-1.639v0c-0.043-0.8-0.051-1.501-0.025-2.103 0.023-0.608 0.107-1.146 0.253-1.613 0.146-0.467 0.354-0.875 0.624-1.224 0.276-0.353 0.638-0.661 1.085-0.925v0c0.536-0.316 1.059-0.492 1.568-0.53 0.509-0.038 0.996 0.04 1.46 0.235 0.467 0.201 0.904 0.499 1.311 0.894 0.405 0.404 0.779 0.898 1.122 1.481v0c0.683 1.16 1.066 2.458 1.15 3.893v0l-2.854 1.68-0.619-1.051 2.126-1.906c-0.076-0.844-0.328-1.628-0.755-2.353v0c-0.721-1.225-1.583-1.543-2.584-0.953v0c-0.536 0.316-0.905 0.807-1.108 1.473-0.212 0.664-0.28 1.573-0.203 2.726v0c0.049 0.796 0.067 1.508 0.054 2.134-0.009 0.632-0.079 1.193-0.211 1.683-0.135 0.484-0.339 0.913-0.61 1.287-0.272 0.374-0.64 0.698-1.106 0.972v0c-0.518 0.305-1.067 0.478-1.647 0.518-0.58 0.04-1.148-0.05-1.705-0.269-0.554-0.213-1.092-0.547-1.613-1.002-0.521-0.455-0.983-1.023-1.386-1.707v0c-0.78-1.325-1.229-2.735-1.347-4.228v0l2.863-1.686 0.619 1.052-1.923 1.786c0.106 0.961 0.408 1.866 0.908 2.714z" fill="#000000" data-fill-palette-color="secondary"></path><path d="M28.028 227.308v0l4.113-1.089 6.707-11.563-0.92-1.855c0.225-0.279 0.498-0.49 0.818-0.635v0c0.528 0.793 1.212 1.729 2.05 2.809v0c0.754 0.972 1.49 1.876 2.208 2.713v0c-0.208 0.3-0.476 0.508-0.802 0.622v0l-1.648-1.538-3.101 5.521c-0.456 0.795-1.168 1.806-2.137 3.033v0l0.032 0.041c0.996-0.4 2.144-0.777 3.445-1.129v0l6.155-1.92-1.011-1.772c0.18-0.226 0.452-0.437 0.818-0.635v0c0.528 0.793 1.067 1.543 1.616 2.25v0c0.469 0.605 1.069 1.334 1.8 2.186v0c-0.213 0.295-0.48 0.502-0.802 0.622v0l-1.484-1.444-17.415 4.854c-0.908 0.246-1.67 0.323-2.287 0.23-0.617-0.092-1.152-0.43-1.604-1.013v0c-0.36-0.465-0.582-0.868-0.666-1.21-0.078-0.346-0.056-0.774 0.067-1.285v0c0.814-0.501 1.718-0.58 2.712-0.235v0c-0.191 1.048-0.133 1.769 0.173 2.163v0c0.264 0.34 0.652 0.433 1.163 0.279z" fill="#000000" data-fill-palette-color="secondary"></path><path d="M68.131 243.911l-12.821 7.205-0.418-0.347 3.438-9.496-8.806 5.046-0.418-0.347 4.922-13.728-1.059-1.278c0.126-0.259 0.347-0.525 0.661-0.797v0c0.688 0.659 1.458 1.342 2.311 2.049v0c0.758 0.628 1.58 1.275 2.468 1.94v0c-0.144 0.334-0.36 0.594-0.648 0.781v0l-1.736-1.039-2.162 5.853c-0.636 1.72-1.129 2.936-1.48 3.648v0l0.039 0.033c1.268-0.876 2.351-1.545 3.25-2.008v0l3.289-1.895 0.892-2.457-1.058-1.277c0.126-0.259 0.347-0.525 0.661-0.798v0c0.688 0.659 1.458 1.342 2.31 2.049v0c0.758 0.628 1.58 1.275 2.468 1.94v0c-0.144 0.334-0.36 0.594-0.648 0.781v0l-1.736-1.039-2.217 5.807c-0.641 1.715-1.134 2.931-1.48 3.648v0l0.04 0.033c1.268-0.876 2.351-1.545 3.249-2.007v0l5.644-3.273-1.432-1.454c0.126-0.259 0.347-0.525 0.661-0.797v0c0.688 0.659 1.353 1.255 1.995 1.787v0c0.542 0.449 1.257 1.007 2.144 1.671v0c-0.144 0.334-0.36 0.594-0.648 0.782v0z" fill="#000000" data-fill-palette-color="secondary"></path><path d="M68.466 255.208v0c-0.466 0.765-0.657 1.393-0.573 1.884 0.088 0.486 0.435 0.914 1.042 1.285v0c0.444 0.271 1.017 0.432 1.722 0.485 0.704 0.053 1.443-0.036 2.218-0.269v0l2.103-3.449c-1.577-0.841-2.908-1.285-3.993-1.33-1.085-0.045-1.925 0.419-2.519 1.394zM75.464 254.347v0l0.689-1.129c0.765-1.255 1.175-2.254 1.228-2.998 0.063-0.746-0.238-1.322-0.904-1.728v0c-0.677-0.413-1.356-0.527-2.037-0.342-0.678 0.179-1.41 0.75-2.197 1.711v0c-0.537-0.183-0.916-0.343-1.138-0.478v0c-0.572-0.349-0.784-0.762-0.636-1.241v0c0.612-1.004 1.533-1.535 2.762-1.594 1.229-0.059 2.494 0.308 3.796 1.102v0c1.43 0.872 2.265 1.781 2.503 2.728 0.249 0.944-0.086 2.169-1.004 3.675v0l-3.807 6.242c-0.224 0.368-0.398 0.698-0.52 0.991v0l1.617 1.287c-0.077 0.257-0.248 0.538-0.512 0.841v0c-1.073-0.59-2.25-1.168-3.531-1.734v0c-0.046-0.188-0.03-0.378 0.048-0.571v0l0.82-1.601c-2.078 0.663-3.869 0.535-5.375-0.384v0c-0.928-0.566-1.493-1.275-1.694-2.126-0.201-0.851-0.026-1.729 0.526-2.634v0c0.826-1.354 2.066-2.003 3.721-1.946 1.655 0.057 3.537 0.7 5.645 1.929z" fill="#000000" data-fill-palette-color="secondary"></path><path d="M80.918 270.234v0l3.109-2.904 0.443-13.36-1.688-1.2c0.067-0.352 0.207-0.667 0.42-0.946v0c0.84 0.449 1.885 0.951 3.135 1.506v0c1.124 0.5 2.2 0.949 3.228 1.346v0c-0.042 0.363-0.179 0.672-0.412 0.928v0l-2.179-0.576-0.123 6.331c-0.026 0.916-0.175 2.144-0.448 3.683v0l0.047 0.021c0.688-0.824 1.522-1.698 2.502-2.624v0l4.516-4.602-1.73-1.083c0.051-0.284 0.192-0.599 0.421-0.946v0c0.84 0.449 1.67 0.855 2.488 1.218v0c0.7 0.311 1.573 0.669 2.62 1.075v0c-0.048 0.36-0.185 0.669-0.413 0.928v0l-1.99-0.571-13.05 12.511c-0.684 0.646-1.319 1.074-1.907 1.285-0.587 0.21-1.218 0.165-1.892-0.135v0c-0.537-0.239-0.923-0.489-1.159-0.751-0.232-0.268-0.415-0.656-0.548-1.164v0c0.48-0.827 1.239-1.323 2.278-1.49v0c0.327 1.013 0.719 1.622 1.175 1.825v0c0.394 0.175 0.779 0.073 1.157-0.305z" fill="#000000" data-fill-palette-color="secondary"></path><path d="M110.814 259.045v0l-0.927 3.584 3.544 0.916c-0.02 0.214-0.043 0.37-0.068 0.47v0c-0.039 0.152-0.101 0.323-0.186 0.513v0l-3.68-0.39-1.783 6.9c-0.32 1.238-0.433 2.14-0.34 2.708 0.093 0.568 0.385 0.915 0.874 1.041v0c0.43 0.111 1.154 0.111 2.171 0v0c0.126 0.195 0.168 0.51 0.127 0.944v0c-0.582 0.174-1.02 0.298-1.313 0.37-0.296 0.079-0.656 0.12-1.081 0.123-0.42 0.012-0.848-0.039-1.284-0.152v0c-0.834-0.216-1.432-0.716-1.794-1.501-0.357-0.777-0.364-1.828-0.022-3.152v0l2.12-8.2-1.698-0.682c0.01-0.174 0.03-0.321 0.06-0.44v0c0.034-0.132 0.099-0.313 0.194-0.543v0c0.484 0.04 0.925-0.001 1.324-0.124 0.397-0.116 0.76-0.333 1.089-0.65 0.336-0.316 0.604-0.603 0.805-0.862 0.203-0.265 0.468-0.649 0.796-1.15v0c0.159-0.015 0.348 0.005 0.566 0.062v0c0.199 0.051 0.367 0.123 0.506 0.215z" fill="#000000" data-fill-palette-color="secondary"></path><path d="M115.192 270.334v0c0.155-1.027 0.449-1.968 0.882-2.822 0.432-0.847 0.983-1.563 1.652-2.146 0.662-0.584 1.421-1.006 2.275-1.264 0.849-0.266 1.77-0.324 2.764-0.173v0c0.973 0.147 1.83 0.473 2.569 0.979 0.747 0.5 1.357 1.128 1.831 1.884 0.473 0.756 0.795 1.603 0.965 2.541 0.175 0.946 0.185 1.933 0.029 2.96v0c-0.159 1.054-0.465 2.004-0.917 2.848-0.451 0.837-1.014 1.544-1.689 2.12-0.667 0.57-1.43 0.977-2.29 1.22-0.861 0.25-1.767 0.303-2.72 0.159v0c-1.007-0.152-1.882-0.471-2.625-0.956-0.743-0.479-1.343-1.084-1.799-1.817-0.456-0.733-0.766-1.568-0.928-2.505-0.162-0.944-0.161-1.953 0.001-3.028zM119.645 266.185v0c-0.894 0.93-1.5 2.446-1.817 4.547v0c-0.157 1.041-0.197 1.968-0.12 2.782 0.078 0.814 0.249 1.507 0.516 2.08 0.258 0.578 0.602 1.028 1.03 1.348 0.421 0.326 0.905 0.531 1.453 0.613v0c0.527 0.08 1.05 0.027 1.569-0.157 0.518-0.178 0.985-0.504 1.403-0.98 0.423-0.468 0.796-1.079 1.116-1.833 0.321-0.753 0.56-1.651 0.718-2.692v0c0.158-1.048 0.196-1.982 0.113-2.803-0.082-0.828-0.26-1.529-0.533-2.103-0.273-0.574-0.626-1.028-1.059-1.363-0.427-0.334-0.903-0.541-1.431-0.621v0c-1.061-0.16-2.047 0.233-2.958 1.182z" fill="#000000" data-fill-palette-color="secondary"></path><path d="M143.851 263.125v0l0.292 15.101 2.109 0.35c0.074 0.272 0.08 0.617 0.02 1.035v0c-1.094-0.027-2.209-0.029-3.344-0.007v0c-0.8 0.015-1.924 0.054-3.372 0.116v0c-0.109-0.326-0.115-0.664-0.019-1.015v0l2.045-0.327c0.05-0.951 0.063-2.049 0.039-3.292v0l-0.287-14.846-2.127-0.215c-0.08-0.258-0.087-0.586-0.019-0.984v0c1.188-0.112 2.667-0.322 4.439-0.629v0c0.161 0.168 0.253 0.337 0.277 0.507v0c-0.08 0.453-0.098 1.855-0.052 4.206z" fill="#000000" data-fill-palette-color="secondary"></path><path d="M160.152 270.763v0l-8.083 0.887c0.325 4.4 1.876 6.448 4.655 6.143v0c1.189-0.13 2.345-0.787 3.467-1.969v0c0.275 0.121 0.501 0.365 0.679 0.73v0c-1.044 1.456-2.476 2.283-4.298 2.483v0c-4.186 0.459-6.549-1.778-7.091-6.711v0c-0.256-2.338 0.163-4.22 1.258-5.647 1.094-1.434 2.464-2.241 4.109-2.421v0c1.808-0.198 3.174 0.284 4.099 1.449 0.926 1.171 1.499 2.758 1.719 4.763v0c-0.154 0.161-0.326 0.259-0.514 0.293zM154.91 265.294v0c-0.89 0.098-1.597 0.643-2.121 1.635-0.53 1-0.784 2.228-0.762 3.684v0l3.201-0.351c1.271-0.139 2.169-0.317 2.695-0.533v0c-0.154-1.407-0.493-2.521-1.016-3.344-0.523-0.816-1.188-1.18-1.997-1.091z" fill="#000000" data-fill-palette-color="secondary"></path><path d="M167.653 273.137v0c0.206 0.871 0.512 1.452 0.918 1.743 0.404 0.284 0.952 0.344 1.644 0.179v0c0.506-0.12 1.027-0.408 1.566-0.866 0.538-0.458 1-1.041 1.387-1.751v0l-0.931-3.931c-1.713 0.511-2.971 1.132-3.774 1.863-0.803 0.731-1.074 1.652-0.81 2.763zM172.022 267.603v0l-0.304-1.287c-0.339-1.43-0.751-2.429-1.236-2.995-0.48-0.575-1.1-0.772-1.858-0.593v0c-0.772 0.183-1.335 0.579-1.689 1.19-0.356 0.604-0.475 1.524-0.358 2.761v0c-0.51 0.247-0.892 0.401-1.145 0.461v0c-0.652 0.154-1.094 0.01-1.325-0.435v0c-0.271-1.144 0.01-2.17 0.842-3.076 0.832-0.907 1.99-1.535 3.473-1.886v0c1.63-0.386 2.863-0.326 3.699 0.178 0.841 0.496 1.465 1.603 1.871 3.319v0l1.684 7.114c0.099 0.419 0.208 0.776 0.327 1.072v0l2.055-0.223c0.126 0.237 0.202 0.556 0.227 0.958v0c-1.178 0.335-2.421 0.752-3.729 1.251v0c-0.165-0.102-0.287-0.248-0.368-0.44v0l-0.543-1.715c-1.011 1.932-2.374 3.102-4.09 3.508v0c-1.058 0.25-1.958 0.144-2.7-0.32-0.742-0.464-1.235-1.211-1.479-2.242v0c-0.365-1.543 0.06-2.877 1.276-4.001 1.216-1.124 3.006-1.99 5.37-2.599z" fill="#000000" data-fill-palette-color="secondary"></path><path d="M181.332 258.451v0l0.854 2.536c0.142-0.9 0.462-1.792 0.959-2.674 0.497-0.882 1.074-1.441 1.731-1.676v0c0.502-0.18 0.969-0.285 1.4-0.317v0c0.205 0.166 0.368 0.42 0.491 0.762v0c0.194 0.541 0.27 1.119 0.23 1.736v0c-0.643 0.049-1.232 0.169-1.767 0.36v0c-1.332 0.477-2.197 1.52-2.593 3.129v0l1.48 4.284 1.32 3.688 2.835-0.601c0.157 0.234 0.273 0.559 0.349 0.975v0c-1.039 0.321-2.219 0.718-3.538 1.191v0c-0.991 0.355-2.163 0.793-3.516 1.313v0c-0.207-0.274-0.321-0.593-0.342-0.955v0l1.834-0.962c-0.256-0.918-0.594-1.962-1.014-3.133v0l-2.392-6.681c-0.118-0.328-0.252-0.621-0.402-0.879v0l-2.017 0.45c-0.152-0.222-0.263-0.53-0.332-0.927v0c1.096-0.487 2.435-1.159 4.016-2.016v0c0.206 0.108 0.344 0.24 0.414 0.397z" fill="#000000" data-fill-palette-color="secondary"></path><path d="M202.004 259.339l-2.118-4.237c-0.596-1.192-1.173-1.947-1.729-2.266-0.553-0.327-1.203-0.304-1.949 0.069v0c-1.143 0.572-1.863 2.006-2.16 4.302v0l3.871 7.74 2.045-0.587c0.19 0.211 0.344 0.52 0.463 0.927v0c-0.994 0.443-2.001 0.92-3.022 1.43v0c-0.709 0.355-1.704 0.871-2.985 1.551v0c-0.238-0.248-0.39-0.55-0.454-0.908v0l1.706-1.174c-0.364-0.88-0.824-1.877-1.381-2.99v0l-3.173-6.347c-0.156-0.312-0.324-0.587-0.505-0.825v0l-1.949 0.688c-0.177-0.202-0.324-0.495-0.44-0.881v0c1.03-0.615 2.279-1.442 3.747-2.481v0c0.217 0.083 0.37 0.197 0.458 0.344v0c0.128 0.44 0.436 1.146 0.922 2.119v0c0.376-2.29 1.331-3.818 2.866-4.586v0c2.391-1.195 4.153-0.659 5.287 1.609v0l4.128 8.254 2.054-0.591c0.183 0.214 0.338 0.523 0.463 0.926v0c-0.994 0.443-2.001 0.92-3.022 1.431v0c-0.709 0.355-1.704 0.871-2.985 1.55v0c-0.245-0.245-0.396-0.547-0.454-0.908v0l1.697-1.169c-0.364-0.88-0.824-1.877-1.381-2.99z" fill="#000000" data-fill-palette-color="secondary"></path><path d="M221.146 239.346v0c-0.061 0.519-0.631 1.18-1.712 1.984v0c-1.537-1.571-2.823-1.963-3.857-1.177v0c-0.811 0.616-1.143 1.608-0.998 2.974 0.151 1.362 0.808 2.808 1.97 4.337v0c1.191 1.567 2.355 2.584 3.492 3.051 1.141 0.472 2.206 0.332 3.197-0.42v0c1.045-0.794 1.743-1.999 2.095-3.615v0c0.302-0.032 0.621 0.06 0.957 0.277v0c-0.182 1.839-1.03 3.333-2.542 4.483v0c-1.448 1.1-3.012 1.5-4.693 1.197-1.677-0.297-3.252-1.414-4.724-3.351v0c-1.415-1.861-2.01-3.706-1.786-5.534 0.225-1.828 0.998-3.245 2.321-4.25v0c1.045-0.794 2.166-1.234 3.363-1.32 1.192-0.082 2.164 0.373 2.917 1.364z" fill="#000000" data-fill-palette-color="secondary"></path><path d="M225.951 239.829v0c-0.725-0.745-1.296-1.548-1.715-2.409-0.414-0.856-0.651-1.727-0.711-2.613-0.065-0.881 0.057-1.74 0.368-2.576 0.301-0.837 0.812-1.606 1.533-2.307v0c0.705-0.687 1.483-1.172 2.332-1.455 0.85-0.293 1.719-0.4 2.608-0.32 0.888 0.08 1.758 0.336 2.607 0.768 0.859 0.432 1.652 1.021 2.377 1.765v0c0.744 0.764 1.315 1.582 1.714 2.452 0.394 0.866 0.617 1.741 0.668 2.627 0.051 0.876-0.086 1.729-0.412 2.562-0.321 0.837-0.826 1.591-1.517 2.263v0c-0.73 0.71-1.513 1.215-2.348 1.513-0.831 0.303-1.676 0.415-2.536 0.335-0.859-0.079-1.712-0.337-2.556-0.774-0.85-0.442-1.654-1.052-2.412-1.831zM225.337 233.773v0c0.2 1.274 1.042 2.673 2.525 4.197v0c0.734 0.754 1.449 1.347 2.144 1.776 0.695 0.43 1.351 0.712 1.968 0.846 0.617 0.144 1.182 0.142 1.697-0.006 0.514-0.138 0.97-0.4 1.366-0.786v0c0.382-0.372 0.656-0.82 0.824-1.345 0.171-0.52 0.194-1.09 0.066-1.71-0.117-0.62-0.379-1.286-0.785-1.998-0.406-0.711-0.976-1.444-1.71-2.198v0c-0.739-0.759-1.461-1.354-2.166-1.784-0.71-0.435-1.375-0.717-1.997-0.847-0.622-0.129-1.197-0.123-1.726 0.02-0.524 0.138-0.977 0.393-1.359 0.765v0c-0.769 0.749-1.051 1.772-0.847 3.07z" fill="#000000" data-fill-palette-color="secondary"></path><path d="M237.993 211.96l10.059 7.828c0.912 0.71 1.568 1.19 1.97 1.442v0l1.462-1.461c0.245 0.13 0.504 0.332 0.777 0.605v0c-0.734 1.032-1.445 2.141-2.135 3.328v0c-0.167 0.026-0.351-0.005-0.552-0.092v0l-1.379-0.917c0.182 0.913 0.165 1.852-0.05 2.819-0.22 0.972-0.632 1.847-1.236 2.624v0c-0.924 1.187-2.181 1.785-3.774 1.793-1.592 0.009-3.213-0.63-4.864-1.914v0c-1.91-1.486-3.045-3.188-3.406-5.106-0.36-1.908 0.012-3.572 1.117-4.991v0c0.869-1.117 1.843-1.823 2.921-2.118v0l-2.735-2.129c-0.901-0.701-1.585-1.203-2.051-1.505v0l-1.462 1.461c-0.247-0.106-0.506-0.307-0.776-0.605v0c0.665-0.999 1.435-2.283 2.31-3.854v0c0.231-0.019 0.419 0.018 0.562 0.113v0c0.306 0.342 1.386 1.235 3.242 2.679zM236.95 218.944v0c-0.689 0.885-0.772 1.955-0.25 3.21 0.518 1.26 1.602 2.533 3.253 3.817v0c1.354 1.054 2.578 1.608 3.67 1.662 1.097 0.048 1.963-0.335 2.597-1.15v0c0.382-0.491 0.651-1.148 0.806-1.971 0.15-0.827 0.11-1.655-0.119-2.484v0l-6.547-5.095c-1.282 0.067-2.419 0.738-3.41 2.011z" fill="#000000" data-fill-palette-color="secondary"></path><path d="M248.42 208.337v0l7.075 4.371 1.431-1.575c0.086 0.029 0.16 0.059 0.222 0.089 0.065 0.024 0.136 0.06 0.212 0.107v0c0.07 0.043 0.142 0.096 0.216 0.157 0.078 0.056 0.155 0.12 0.231 0.191v0c-0.612 0.9-1.218 1.835-1.818 2.807v0c-0.208 0.337-0.457 0.746-0.746 1.226-0.289 0.48-0.615 1.034-0.978 1.662v0c-0.163-0.036-0.316-0.099-0.462-0.189v0c-0.134-0.083-0.268-0.198-0.402-0.345v0l0.834-1.895c-0.395-0.284-0.819-0.574-1.271-0.87-0.454-0.305-0.946-0.621-1.475-0.948v0l-4.694-2.9c-0.971-0.6-1.707-1.022-2.206-1.266v0l-1.296 1.609c-0.094-0.018-0.228-0.08-0.402-0.188v0c-0.076-0.047-0.148-0.092-0.218-0.134-0.076-0.047-0.148-0.112-0.218-0.195v0c0.56-1.036 1.187-2.396 1.883-4.08v0c0.228-0.044 0.418-0.027 0.571 0.051v0c0.37 0.325 1.54 1.096 3.511 2.315zM238.555 206.689v0c-0.088-0.014-0.172-0.046-0.254-0.097-0.081-0.05-0.16-0.099-0.236-0.146v0c-0.395-0.244-0.613-0.608-0.652-1.09-0.037-0.473 0.095-0.954 0.397-1.442v0c0.28-0.454 0.642-0.74 1.086-0.86 0.453-0.122 0.915-0.037 1.386 0.254v0c0.384 0.237 0.59 0.593 0.617 1.068 0.034 0.479-0.108 0.974-0.424 1.486v0c-0.219 0.355-0.503 0.613-0.852 0.775-0.343 0.166-0.699 0.183-1.068 0.052z" fill="#000000" data-fill-palette-color="secondary"></path><path d="M260.047 196.671l-4.276-2.041c-1.203-0.574-2.122-0.816-2.756-0.724-0.638 0.082-1.136 0.499-1.495 1.252v0c-0.551 1.154-0.237 2.727 0.94 4.721v0l7.811 3.727 1.252-1.72c0.279 0.05 0.591 0.199 0.935 0.446v0c-0.511 0.96-1.013 1.956-1.504 2.986v0c-0.342 0.716-0.809 1.735-1.403 3.057v0c-0.34-0.049-0.646-0.195-0.916-0.437v0l0.624-1.974c-0.828-0.471-1.804-0.974-2.926-1.51v0l-6.404-3.056c-0.315-0.15-0.616-0.264-0.905-0.342v0l-1.115 1.741c-0.264-0.05-0.56-0.192-0.888-0.424v0c0.435-1.118 0.912-2.538 1.43-4.26v0c0.222-0.068 0.413-0.072 0.573-0.01v0c0.372 0.268 1.048 0.637 2.029 1.104v0c-1.111-2.037-1.297-3.83-0.557-5.378v0c1.151-2.412 2.871-3.072 5.16-1.98v0l8.329 3.974 1.257-1.729c0.276 0.056 0.588 0.205 0.934 0.446v0c-0.511 0.96-1.013 1.956-1.504 2.986v0c-0.342 0.716-0.809 1.735-1.402 3.057v0c-0.343-0.043-0.649-0.188-0.916-0.437v0l0.619-1.965c-0.828-0.471-1.804-0.974-2.926-1.51z" fill="#000000" data-fill-palette-color="secondary"></path><path d="M268.355 188.883v0c0.114-0.128 0.294-0.206 0.54-0.234v0c0.266 0.683 0.845 1.17 1.735 1.46v0c0.787 0.256 1.534 0.101 2.244-0.467 0.709-0.567 1.251-1.426 1.626-2.576v0c0.385-1.183 0.488-2.239 0.309-3.167-0.177-0.935-0.659-1.53-1.446-1.786v0c-0.852-0.277-1.53-0.325-2.034-0.145-0.505 0.181-0.951 0.726-1.341 1.634v0l-1.921 4.475c-0.23 0.486-0.634 0.822-1.212 1.008-0.578 0.186-1.088 0.207-1.53 0.062v0l-2.203-2.539c-0.668 0.616-1.419 1.001-2.252 1.154-0.835 0.159-1.624 0.118-2.365-0.123v0c-1.391-0.453-2.346-1.339-2.866-2.658-0.515-1.311-0.554-2.639-0.116-3.985v0c0.423-1.3 1.139-2.329 2.148-3.086v0c-2.222-0.817-3.115-2.035-2.682-3.655v0c0.237-0.397 0.661-0.496 1.273-0.297v0c0.325 0.106 0.675 0.256 1.05 0.449v0c-0.164 0.658-0.127 1.253 0.11 1.783 0.237 0.53 0.563 0.963 0.979 1.3v0c1.092-0.55 2.252-0.625 3.481-0.226v0c1.3 0.423 2.212 1.299 2.736 2.627 0.522 1.334 0.555 2.7 0.1 4.098v0c-0.241 0.741-0.559 1.375-0.953 1.901v0l1.921 1.552 2.614-5.942c0.426-0.911 1.013-1.521 1.761-1.832 0.744-0.319 1.587-0.325 2.529-0.018v0c1.638 0.533 2.707 1.535 3.205 3.006 0.492 1.469 0.41 3.214-0.248 5.236v0c-0.546 1.677-1.277 2.884-2.193 3.621-0.909 0.739-1.874 0.943-2.894 0.611v0c-0.689-0.224-1.228-0.644-1.618-1.26-0.389-0.616-0.552-1.276-0.487-1.981zM259.228 185.416v0c0.956 0.311 1.858 0.31 2.708-0.003 0.843-0.315 1.41-0.918 1.699-1.808v0c0.284-0.871 0.184-1.691-0.299-2.459-0.481-0.775-1.209-1.321-2.184-1.639v0c-1.047-0.341-2.01-0.352-2.89-0.035-0.875 0.326-1.457 0.931-1.744 1.816v0c-0.273 0.839-0.146 1.653 0.38 2.442 0.52 0.788 1.297 1.35 2.33 1.686z" fill="#000000" data-fill-palette-color="secondary"></path></g></svg></g></svg></g></svg></g></svg></g><defs></defs></svg><rect width="279.72" height="279.72" fill="none" stroke="none" visibility="hidden"></rect></g></svg></g></svg>